<?xml version="1.0" encoding="UTF-8" standalone="no"?>
<!-- Created with Inkscape (http://www.inkscape.org/) -->

<svg
   width="40mm"
   height="10mm"
   viewBox="0 0 40 10"
   version="1.1"
   id="svg1"
   inkscape:version="1.3.2 (091e20ef0f, 2023-11-25, custom)"
   sodipodi:docname="booster.svg"
   xml:space="preserve"
   inkscape:export-filename="booster.png"
   inkscape:export-xdpi="325.12"
   inkscape:export-ydpi="325.12"
   xmlns:inkscape="http://www.inkscape.org/namespaces/inkscape"
   xmlns:sodipodi="http://sodipodi.sourceforge.net/DTD/sodipodi-0.dtd"
   xmlns="http://www.w3.org/2000/svg"
   xmlns:svg="http://www.w3.org/2000/svg"><sodipodi:namedview
     id="namedview1"
     pagecolor="#ffffff"
     bordercolor="#000000"
     borderopacity="0.25"
     inkscape:showpageshadow="2"
     inkscape:pageopacity="0.0"
     inkscape:pagecheckerboard="0"
     inkscape:deskcolor="#d1d1d1"
     inkscape:document-units="mm"
     inkscape:zoom="4.0416192"
     inkscape:cx="65.072929"
     inkscape:cy="28.206517"
     inkscape:window-width="1920"
     inkscape:window-height="1006"
     inkscape:window-x="1680"
     inkscape:window-y="0"
     inkscape:window-maximized="1"
     inkscape:current-layer="layer1" /><defs
     id="defs1" /><g
     inkscape:label="Layer 1"
     inkscape:groupmode="layer"
     id="layer1"><rect
       style="fill:#4a4a4a;stroke:none;stroke-width:0.524999;fill-opacity:1"
       id="rect1"
       width="40"
       height="10"
       x="0"
       y="0"
       ry="0" /><circle
       style="fill:#a6a6a6;fill-opacity:1;stroke:none;stroke-width:0.694645"
       id="path1"
       cx="20"
       cy="5"
       r="4" /><g
       style="fill:none;stroke:#8e33c8;stroke-width:0.99916;stroke-dasharray:none;stroke-opacity:1"
       id="g2"
       transform="matrix(0.36430608,0,0,0.36430608,15.744316,0.79764472)"><path
         d="M 18.4961,10.7088 9.8603,19.5885 C 9.6207,19.8349 9.22228,19.5503 9.37764,19.2437 L 12.4518,13.1779 C 12.553,12.9783 12.408,12.7423 12.1842,12.7423 H 5.71762 c -0.26633,0 -0.4006,-0.3212 -0.21352,-0.5108 l 8.0091,-8.11451 c 0.2323,-0.23542 0.6188,0.02335 0.4897,0.32788 L 11.706,9.86069 c -0.0845,0.19931 0.0634,0.41981 0.2799,0.41711 l 6.2914,-0.0781 c 0.2671,-0.0033 0.405,0.3177 0.2188,0.5091 z"
         stroke="#000000"
         id="path2"
         style="fill:none;stroke:#8e33c8;stroke-width:0.99916;stroke-dasharray:none;stroke-opacity:1" /></g><g
       style="fill:none;stroke:#70f5f3;stroke-width:0.99916;stroke-dasharray:none;stroke-opacity:1"
       id="g3"
       transform="matrix(0.36430609,0,0,0.36430609,15.512856,0.56619213)"><path
         d="M 18.4961,10.7088 9.8603,19.5885 C 9.6207,19.8349 9.22228,19.5503 9.37764,19.2437 L 12.4518,13.1779 C 12.553,12.9783 12.408,12.7423 12.1842,12.7423 H 5.71762 c -0.26633,0 -0.4006,-0.3212 -0.21352,-0.5108 l 8.0091,-8.11451 c 0.2323,-0.23542 0.6188,0.02335 0.4897,0.32788 L 11.706,9.86069 c -0.0845,0.19931 0.0634,0.41981 0.2799,0.41711 l 6.2914,-0.0781 c 0.2671,-0.0033 0.405,0.3177 0.2188,0.5091 z"
         stroke="#000000"
         id="path3"
         style="fill:none;stroke:#70f5f3;stroke-width:0.99916;stroke-dasharray:none;stroke-opacity:1" /></g><g
       style="fill:none;stroke-width:0.99915983;stroke-dasharray:none;stroke:#ffffff"
       id="g1"
       transform="matrix(0.36430609,0,0,0.36430609,15.628586,0.68191843)"><path
         d="M 18.4961,10.7088 9.8603,19.5885 C 9.6207,19.8349 9.22228,19.5503 9.37764,19.2437 L 12.4518,13.1779 C 12.553,12.9783 12.408,12.7423 12.1842,12.7423 H 5.71762 c -0.26633,0 -0.4006,-0.3212 -0.21352,-0.5108 l 8.0091,-8.11451 c 0.2323,-0.23542 0.6188,0.02335 0.4897,0.32788 L 11.706,9.86069 c -0.0845,0.19931 0.0634,0.41981 0.2799,0.41711 l 6.2914,-0.0781 c 0.2671,-0.0033 0.405,0.3177 0.2188,0.5091 z"
         stroke="#000000"
         id="path1-5"
         style="stroke-width:0.99915983;stroke-dasharray:none;fill:none;stroke:#ffffff" /></g><g
       style="fill:none;stroke:#ededed;stroke-opacity:1"
       id="g4"
       transform="matrix(-0.34735647,0,0,0.34735647,8.542442,0.83172236)"><path
         d="M 12,4 V 20 M 12,4 8,8 m 4,-4 4,4"
         stroke="#000000"
         stroke-width="2"
         stroke-linecap="round"
         stroke-linejoin="round"
         id="path1-7"
         style="stroke:#ededed;stroke-opacity:1" /></g><g
       style="fill:none;stroke:#ededed;stroke-opacity:1"
       id="g5"
       transform="matrix(-0.34735647,0,0,0.34735647,40.025572,0.9474488)"><path
         d="M 12,4 V 20 M 12,4 8,8 m 4,-4 4,4"
         stroke="#000000"
         stroke-width="2"
         stroke-linecap="round"
         stroke-linejoin="round"
         id="path4"
         style="stroke:#ededed;stroke-opacity:1" /></g></g></svg>
