<?xml version="1.0" encoding="UTF-8" standalone="no"?>
<!-- Created with Inkscape (http://www.inkscape.org/) -->

<svg
   width="96"
   height="48"
   viewBox="0 0 25.4 12.7"
   version="1.1"
   id="svg1"
   xml:space="preserve"
   inkscape:version="1.3.2 (091e20ef0f, 2023-11-25, custom)"
   sodipodi:docname="bouncePad.svg"
   inkscape:export-filename="bouncePad.png"
   inkscape:export-xdpi="512"
   inkscape:export-ydpi="512"
   xmlns:inkscape="http://www.inkscape.org/namespaces/inkscape"
   xmlns:sodipodi="http://sodipodi.sourceforge.net/DTD/sodipodi-0.dtd"
   xmlns="http://www.w3.org/2000/svg"
   xmlns:svg="http://www.w3.org/2000/svg"><sodipodi:namedview
     id="namedview1"
     pagecolor="#ffffff"
     bordercolor="#000000"
     borderopacity="0.25"
     inkscape:showpageshadow="2"
     inkscape:pageopacity="0.0"
     inkscape:pagecheckerboard="0"
     inkscape:deskcolor="#d1d1d1"
     inkscape:document-units="mm"
     inkscape:zoom="5.6568543"
     inkscape:cx="17.500893"
     inkscape:cy="24.57196"
     inkscape:window-width="1920"
     inkscape:window-height="1006"
     inkscape:window-x="1680"
     inkscape:window-y="0"
     inkscape:window-maximized="1"
     inkscape:current-layer="layer1" /><defs
     id="defs1" /><g
     inkscape:label="Layer 1"
     inkscape:groupmode="layer"
     id="layer1"><path
       id="rect2"
       style="fill:#4a4a4a;fill-opacity:1;stroke-width:0.125"
       d="M 0 0 L 0 1.5875 L 1.0583333 1.5875 L 1.0583333 11.1125 L 0 11.1125 L 0 12.7 L 1.5875 12.7 L 1.5875 11.641667 L 23.8125 11.641667 L 23.8125 12.7 L 25.4 12.7 L 25.4 11.1125 L 24.341667 11.1125 L 24.341667 1.5875 L 25.4 1.5875 L 25.4 0 L 23.8125 0 L 23.8125 1.0583333 L 1.5875 1.0583333 L 1.5875 0 L 0 0 z " /><rect
       style="fill:#d38d5f;fill-opacity:1;stroke-width:0.125"
       id="rect6"
       width="22.225"
       height="0.52916652"
       x="1.5875"
       y="12.170834" /><rect
       style="fill:#d38d5f;fill-opacity:1;stroke-width:0.125"
       id="rect7"
       width="0.52916664"
       height="9.5249996"
       x="0"
       y="1.5875" /><rect
       style="fill:#d38d5f;fill-opacity:1;stroke-width:0.125"
       id="rect8"
       width="22.225"
       height="0.52916664"
       x="1.5875"
       y="0" /><rect
       style="fill:#d38d5f;fill-opacity:1;stroke-width:0.125"
       id="rect9"
       width="0.52916652"
       height="9.5249996"
       x="24.870832"
       y="1.5875" /><ellipse
       style="fill:#a6a6a6;fill-opacity:1;stroke-width:0.190035"
       id="path9"
       cx="12.7"
       cy="6.3499999"
       rx="3.1775422"
       ry="3.177588" /><g
       style="fill:none"
       id="g20"
       transform="matrix(0.22306427,0,0,0.22306427,9.8001102,3.6731944)"><path
         d="m 18.711319,6.7119544 c -1.1046,0 -2,-0.89543 -2,-2 0,-1.10457 0.8954,-2 2,-2 1.1046,0 2,0.89543 2,2 0,1.10457 -0.8954,2 -2,2 z"
         stroke="#000000"
         stroke-width="1.5"
         stroke-linecap="round"
         stroke-linejoin="round"
         id="path15"
         style="fill:none;stroke:#70f5f3;stroke-opacity:1" /><path
         d="m 3.7119408,15.212505 c 3,-1 5.5,-0.5 8.0000002,4.5 0.5,-3 2,-7.5 3.5,-9.9999997"
         stroke="#000000"
         stroke-width="1.5"
         stroke-linecap="round"
         stroke-linejoin="round"
         id="path16"
         style="fill:none;stroke:#70f5f3;stroke-opacity:1" /><path
         d="m 19.287644,7.2876576 c -1.1046,0 -2,-0.89543 -2,-2 0,-1.10457 0.8954,-2 2,-2 1.1046,0 2,0.89543 2,2 0,1.10457 -0.8954,2 -2,2 z"
         stroke="#000000"
         stroke-width="1.5"
         stroke-linecap="round"
         stroke-linejoin="round"
         id="path17"
         style="stroke:#8e33c8;stroke-opacity:1" /><path
         d="m 4.287644,15.787658 c 3,-1 5.5,-0.5 8,4.5 0.5,-3 2,-7.5 3.5,-10"
         stroke="#000000"
         stroke-width="1.5"
         stroke-linecap="round"
         stroke-linejoin="round"
         id="path18"
         style="stroke:#8e33c8;stroke-opacity:1" /><path
         d="m 19,7 c -1.1046,0 -2,-0.89543 -2,-2 0,-1.10457 0.8954,-2 2,-2 1.1046,0 2,0.89543 2,2 0,1.10457 -0.8954,2 -2,2 z"
         stroke="#000000"
         stroke-width="1.5"
         stroke-linecap="round"
         stroke-linejoin="round"
         id="path19"
         style="stroke:#ffffff;stroke-opacity:1" /><path
         d="m 4,15.5 c 3,-1 5.5,-0.5 8,4.5 0.5,-3 2,-7.5 3.5,-10"
         stroke="#000000"
         stroke-width="1.5"
         stroke-linecap="round"
         stroke-linejoin="round"
         id="path20"
         style="stroke:#ffffff;stroke-opacity:1" /></g></g></svg>
