<svg xmlns="http://www.w3.org/2000/svg" xmlns:xlink="http://www.w3.org/1999/xlink" width="145" height="48" fill="none" xmlns:v="https://vecta.io/nano"><g fill="#fff"><path d="M37.23 38.23V2.57h-22.9c9.59 2.69 16.35 7.94 16.5 14.48.39 16.27-28.64 21.18-28.64 21.18h35.03.01zM7.78 2.9c3.26 1.77 5.16 4.27 6.34 7.22.45 1.11.75 2.31.92 3.57 3.46.43 6.39.96 8.76 1.58v-.02C22.5 9.24 17.07 4.54 7.78 2.91m-3.41.43c.99 2.68 1.66 6.02 1.8 9.67 2.61.13 4.99.28 7.24.52-.25-1.49-.72-2.92-1.42-4.24-1.64-3.08-4.34-5.25-7.62-5.95zm-2.8 32.27c4.23-2.16 7.46-5.6 9.52-9.49-3.68.37-6.32.46-6.32.45-.87 3.31-1.96 6.35-3.21 9.03m10.3-11.1c1.34-3.08 1.95-6.35 1.73-9.41-2.34-.25-4.81-.46-7.41-.58 0 3-.35 6.4-.92 9.68-.06.34-.07.42-.14.76h.45c2.24-.08 4.04-.19 6.3-.44M4.44 35.78c7.91-1.14 14.43-5.95 17.59-11.36-2.91.67-6.16 1.16-9.04 1.48-1.8 3.92-4.7 7.5-8.54 9.88m23.66-13.42c-1.08.58-2.45 1.08-3.96 1.49-1.29 2.76-3.44 5.35-6.29 7.57v.02c4.83-2.57 8.49-5.67 10.24-9.07m.96-2.81c.04-.73-1.23-1.5-3.44-2.21h-.03c.03 1.6-.23 3.18-.73 4.72 2.55-.81 4.16-1.69 4.2-2.51zm-3.59-3.82l.02.03c1.64.52 2.91 1.09 3.78 1.68l-.03-.26c-.33-4.4-3.8-8.18-9.24-10.83 3.08 2.67 4.98 5.79 5.47 9.38zm-10.28-.44c.13 2.9-.39 6.02-1.52 9 3.44-.44 6.67-1.03 9.29-1.71.83-1.91 1.21-3.85 1.09-5.7-2.34-.61-5.38-1.17-8.85-1.59m34.74-8.65c0 1.8-1.12 3.09-2.7 3.09h-2.48V3.68h2.7c1.43 0 2.48 1.27 2.48 2.97zm-5.18 4.18h2.72c1.9 0 3.28 1.46 3.28 3.48s-1.24 3.21-3.28 3.21h-2.72v-6.69zm7.44-4.28a4 4 0 0 0-4.01-3.99H40.8v.9h1.82v14.25H40.8v.9h7.85c2.48 0 4.33-1.8 4.33-4.18a4.07 4.07 0 0 0-2.38-3.77c-.61-.29-.97-.39-1.97-.51 1.97-.17 3.58-1.78 3.58-3.6m8.83 11.17h-2.33v-6.47c1.34-1.63 1.78-2.04 2.21-2.04.24 0 .58.22 1.07.68l1.41-1.7-.75-.66c-.15-.15-.39-.22-.68-.22-.88 0-1.51.54-3.26 2.77V7.36h-.44l-3.5.95v.66h2.12v8.76h-1.85v.9h6.01v-.9l-.01-.01zm10.54-6.3h-5.64c.22-1.9 1.46-3.09 3.23-3.09 1.41 0 2.41 1.04 2.41 2.5v.58.01zm1.99.97v-.66c0-2.63-1.8-4.43-4.43-4.43-3.02 0-5.23 2.48-5.23 5.89s2.19 5.74 5.28 5.74c1.41 0 2.26-.29 4.09-1.34l-.46-.9c-1.36.88-2.02 1.12-2.99 1.12-2.31 0-3.92-2.12-3.92-5.15v-.27h7.66zm9.76 3.6l-.71.56c-.85.66-1.22.8-1.97.8-1.99 0-3.19-1.63-3.19-4.35s1.58-4.67 3.94-4.67c1.43 0 1.92.51 1.92 2.02v5.64h.01zm3.96 1.95v-.68h-2.12V.69h-.46l-3.5.95v.66h2.12v5.62c-.92-.49-1.36-.61-2.19-.61-3.18 0-5.76 2.7-5.76 6.05 0 3.11 1.99 5.57 4.52 5.57 1.24 0 2.09-.44 3.43-1.78v1.7h.46l3.5-.92v.01zm7.66-1.73c-1.07.95-1.7 1.29-2.48 1.29-1.02 0-1.68-.66-1.68-1.68V14.6l4.16-.97v2.58zm3.7 1.95v-.68h-1.87V9.99c0-1.6-1.41-2.67-3.55-2.67s-3.84 1.05-3.84 2.46a1.07 1.07 0 0 0 .19.68l2.16-.63V8.66c.71-.34 1.02-.41 1.51-.41.97 0 1.7.71 1.7 1.68v2.75l-4.16.95c-1.17.27-1.97 1.29-1.97 2.53 0 1.63 1.24 2.8 2.92 2.8 1.29 0 2.21-.51 3.24-1.78v.24c0 .9.44 1.43 1.19 1.43.19 0 .54-.07.85-.17l1.63-.51v-.01zM56.9 22.18h-4.89v.9h1.82v9.17c0 2.92-1.87 4.89-4.65 4.89s-4.43-1.92-4.43-4.86v-9.19h1.82v-.9h-5.79v.9h1.82v9.95c0 3.19 2.6 5.52 6.13 5.52 1.19 0 2.36-.29 3.38-.83 2.02-1.09 2.94-2.77 2.94-5.37v-9.27h1.82v-.9l.03-.01zm13.58 15.15h-1.82v-7.37c0-1.87-1.12-3.04-2.92-3.04-1.56 0-2.6.66-4.43 2.77v-2.72h-.44l-3.5.95v.66h2.12v8.76h-1.85v.9h5.52v-.9h-1.85v-6.32c2.12-2.43 2.72-2.89 3.77-2.89s1.73.8 1.73 2.09v7.13h-1.82v.9h5.5v-.9l-.01-.02zm7.22 0h-1.85V26.97h-.44l-3.5.95v.66h2.11v8.75h-1.84v.9h5.52v-.9z"/><use xlink:href="#B"/><path d="M88.64 27.46h-3.75v.9h1.63l-2.72 6.93-2.89-6.93h1.7v-.9h-4.72v.9l1.02.02 4.26 10.17h.48l3.97-10.19h1.02v-.9zm8.06 3.61h-5.64c.22-1.9 1.46-3.09 3.23-3.09 1.41 0 2.41 1.05 2.41 2.51v.58zm1.99.94v-.66c0-2.63-1.8-4.43-4.43-4.43-3.02 0-5.23 2.48-5.23 5.89s2.19 5.74 5.28 5.74c1.41 0 2.26-.29 4.09-1.34l-.46-.9c-1.36.88-2.02 1.12-2.99 1.12-2.31 0-3.92-2.12-3.92-5.15v-.27h7.66zm7.82 5.32h-2.33v-6.47c1.34-1.63 1.78-2.04 2.21-2.04.24 0 .58.22 1.07.68l1.41-1.7-.75-.66c-.15-.15-.39-.22-.68-.22-.88 0-1.51.54-3.26 2.77v-2.72h-.44l-3.5.95v.66h2.12v8.76h-1.85v.9h6.01v-.9l-.01-.01zm4.72.25c.7.66 1.73.97 3.09.97 2.16 0 3.67-1.36 3.67-3.31 0-1.56-.75-2.36-3.14-3.31-2.94-1.19-3.11-1.31-3.11-2.36s.83-1.73 2.09-1.73 2.41.78 2.41 1.73c0 .22-.05.53-.15.8h1.05l.58-3.5h-1.05l-.15.88c-.68-.56-1.51-.83-2.58-.83-2.24 0-3.77 1.29-3.77 3.19 0 1.53.83 2.43 3.16 3.33 2.55 1 3.23 1.53 3.23 2.51s-1 1.68-2.33 1.68c-1.51 0-2.87-.93-2.87-1.97V35h-1.12v3.45h.97v-.88l.02.01zm14.11-.25h-1.85V26.97h-.43l-3.51.95v.66h2.12v8.75h-1.85v.9h5.52v-.9z"/><use xlink:href="#B" x="47.65"/><path d="M132.4 36.55c-.83.49-1.14.58-1.65.58-.8 0-1.12-.34-1.12-1.27v-7.3h3.02v-1.12h-3.02v-3.43h-1.75v3.36l-2.12.54v.66h2.12v7.51c0 1.48.85 2.36 2.26 2.36.9 0 1.38-.22 2.67-1.24l-.41-.66v.01zm11.83-9.09h-3.74v.9h1.63l-2.72 6.93-2.94-6.93h1.73v-.9h-4.72v.9h1.02l3.94 9.41c-.58 1.48-.9 2.07-1.58 2.97-.75.97-1.22 1.34-2.55 2.09l1.58 1.63.97-1.31c.8-1.17 1.7-2.89 2.26-4.35l4.11-10.43h1.02v-.9l-.01-.01zm-98 17.46c0 1.09-.65 1.95-1.47 1.95S43.3 46 43.3 44.91s.65-1.93 1.46-1.93 1.47.86 1.47 1.94zm.82-.01c0-1.24-1.06-2.33-2.28-2.33s-2.3 1.08-2.3 2.33 1.06 2.36 2.3 2.36 2.28-1.1 2.28-2.36zm4.25-1.33V42.5h-.36v.19h-3.03v.36h.72v3.74h-.72v.36h2.18v-.36h-.72v-1.72h1.23v.49h.36v-1.34h-.36v.47h-1.23v-1.61h1.58v.5h.35zm5.12 1.78h-1.44l.73-1.7.7 1.7h.01zm1.79 1.79v-.36h-.4l-1.78-4.25h-.25l-1.85 4.25h-.37v.36h1.35v-.36h-.55l.46-1.05h1.76l.43 1.05h-.42v.36h1.62z"/><use xlink:href="#C"/><use xlink:href="#C" x="4.64"/><path d="M71.88 47.15v-.98h-.35v.59h-1.62v-3.68h.73v-.39h-2.18v.39h.72v3.71h-.72v.36h3.42zm3.18 0v-.36h-.73v-3.71h.73v-.39h-2.18v.39h.72v3.71h-.72v.36h2.18zm4.71 0v-.9h-.36v.51h-1.64v-1.69H79v.49h.36v-1.34H79v.47h-1.23v-1.61h1.58v.5h.35V42.5h-.36v.19h-3.03v.36h.72v3.74h-.72v.36h3.46zm5.01-2.22c0 1.04-.69 1.83-1.58 1.83h-.75v-3.69h.76c.89 0 1.57.81 1.57 1.85m.83-.01c0-1.24-1.02-2.23-2.33-2.23h-2.29v.36h.72v3.74h-.72v.36h2.29c1.33 0 2.33-.96 2.33-2.23z"/><use xlink:href="#D"/><path d="M96.29 46.96v-.9h-.35v.49c-.46.24-.69.32-1.02.32-1.05 0-1.84-.87-1.84-2.02 0-1.08.72-1.88 1.71-1.88.43 0 .74.11 1.16.41v.33h.35v-1.15h-.35v.3c-.44-.21-.71-.29-1.14-.29-1.51 0-2.56.98-2.56 2.36s1.05 2.35 2.51 2.35c.62 0 1-.09 1.53-.32zm3.27.19v-.36h-.73v-3.71h.73v-.39h-2.18v.39h.72v3.71h-.72v.36h2.18zm4.71 0v-.9h-.36v.51h-1.64v-1.69h1.24v.49h.35v-1.34h-.35v.47h-1.24v-1.61h1.58v.5h.35V42.5h-.36v.19h-3.03v.36h.73v3.74h-.73v.36h3.46zm6.27-4.07v-.39h-1.94v.39h.73v2.76l-2.71-3.15h-1.25v.39h.68l.19.25v3.46h-.72v.36h1.94v-.36h-.74v-2.84l2.8 3.28h.29v-4.15h.73zm4.55 3.88v-.9h-.35v.49c-.46.24-.7.32-1.02.32-1.05 0-1.84-.87-1.84-2.02 0-1.08.72-1.88 1.71-1.88.43 0 .74.11 1.16.41v.33h.35v-1.15h-.35v.3c-.44-.21-.72-.29-1.14-.29-1.51 0-2.56.98-2.56 2.36s1.05 2.35 2.51 2.35c.62 0 1-.09 1.53-.32zm4.54.19v-.9h-.36v.51h-1.64v-1.69h1.23v.49h.36v-1.34h-.36v.47h-1.23v-1.61h1.58v.5h.35V42.5h-.36v.19h-3.03v.36h.73v3.74h-.73v.36h3.46z"/><use xlink:href="#D" x="32.37"/></g><defs ><path id="B" d="M73.56 22.79c0 .73.56 1.29 1.26 1.29s1.29-.56 1.29-1.29a1.25 1.25 0 0 0-1.29-1.27c-.73 0-1.26.56-1.26 1.27z"/><path id="C" d="M62.81 43.99c0-.8-.54-1.3-1.4-1.3h-2.34v.39h.72v3.72h-.72v.36h2.18v-.36h-.72v-3.72h.56c.58 0 .91.35.91.96s-.4 1.02-.95 1.02c-.07 0-.11 0-.19-.02v.31c.18.03.26.04.41.04.9 0 1.55-.59 1.55-1.4"/><path id="D" d="M91.32 46c0-.63-.23-.94-1.06-1.4l-.68-.4c-.33-.19-.43-.33-.43-.58 0-.4.3-.65.75-.65.26 0 .43.05.81.25v.48h.36v-1.16h-.36v.24c-.28-.15-.56-.22-.88-.22-.77 0-1.38.55-1.38 1.24 0 .57.29.91 1.14 1.33.8.4 1.06.66 1.06 1.02s-.35.65-.83.65c-.33 0-.6-.09-.98-.32v-.5h-.36v1.21h.36v-.25c.38.21.72.32 1.09.32.8 0 1.4-.55 1.4-1.27"/></defs></svg>