<?xml version="1.0" encoding="UTF-8" standalone="no"?>
<!-- Created with Inkscape (http://www.inkscape.org/) -->

<svg
   width="48"
   height="48"
   viewBox="0 0 12.7 12.7"
   version="1.1"
   id="svg1"
   inkscape:version="1.3.2 (091e20ef0f, 2023-11-25, custom)"
   sodipodi:docname="buttonBackground.svg"
   inkscape:export-filename="buttonBackground.png"
   inkscape:export-xdpi="512"
   inkscape:export-ydpi="512"
   xmlns:inkscape="http://www.inkscape.org/namespaces/inkscape"
   xmlns:sodipodi="http://sodipodi.sourceforge.net/DTD/sodipodi-0.dtd"
   xmlns="http://www.w3.org/2000/svg"
   xmlns:svg="http://www.w3.org/2000/svg">
  <sodipodi:namedview
     id="namedview1"
     pagecolor="#ffffff"
     bordercolor="#000000"
     borderopacity="0.25"
     inkscape:showpageshadow="2"
     inkscape:pageopacity="0.0"
     inkscape:pagecheckerboard="0"
     inkscape:deskcolor="#d1d1d1"
     inkscape:document-units="mm"
     inkscape:zoom="8.3541668"
     inkscape:cx="4.5486284"
     inkscape:cy="22.862843"
     inkscape:window-width="1920"
     inkscape:window-height="1006"
     inkscape:window-x="1680"
     inkscape:window-y="0"
     inkscape:window-maximized="1"
     inkscape:current-layer="layer1" />
  <defs
     id="defs1" />
  <g
     inkscape:label="Layer 1"
     inkscape:groupmode="layer"
     id="layer1">
    <rect
       style="fill:#7d8080;fill-opacity:0.80175442;stroke:none;stroke-width:0.125"
       id="rect4"
       width="12.7"
       height="12.7"
       x="0"
       y="0"
       ry="1.2988899" />
    <path
       id="rect1"
       style="fill:#4c4d4d;fill-opacity:0.49763003;stroke:none;stroke-width:0.125"
       d="M 1.2991453 0 C 0.57956105 1.5666465e-16 -1.9073486e-07 0.57956124 -1.9073486e-07 1.2991455 L -1.9073486e-07 11.400854 C -1.9073486e-07 12.120439 0.57956105 12.7 1.2991453 12.7 L 11.400854 12.7 C 12.120439 12.7 12.7 12.120439 12.7 11.400854 L 12.7 1.2991455 C 12.7 0.57956124 12.120439 0 11.400854 0 L 1.2991453 0 z M 1.8040241 0.63510335 L 10.895976 0.63510335 C 11.543601 0.63510335 12.064896 1.1563984 12.064896 1.8040243 L 12.064896 10.895976 C 12.064896 11.543602 11.543601 12.064897 10.895976 12.064897 L 1.8040241 12.064897 C 1.1563982 12.064897 0.63510316 11.543602 0.63510316 10.895976 L 0.63510316 1.8040243 C 0.63510316 1.1563984 1.1563982 0.63510335 1.8040241 0.63510335 z " />
  </g>
</svg>
