<?xml version="1.0" encoding="UTF-8" standalone="no"?>
<!-- Created with Inkscape (http://www.inkscape.org/) -->

<svg
   width="120mm"
   height="20mm"
   viewBox="0 0 120 20"
   version="1.1"
   id="svg1"
   xml:space="preserve"
   inkscape:version="1.3.2 (091e20ef0f, 2023-11-25, custom)"
   sodipodi:docname="dialogueBackground.svg"
   inkscape:export-filename="dialogueBackground.png"
   inkscape:export-xdpi="162.56"
   inkscape:export-ydpi="162.56"
   xmlns:inkscape="http://www.inkscape.org/namespaces/inkscape"
   xmlns:sodipodi="http://sodipodi.sourceforge.net/DTD/sodipodi-0.dtd"
   xmlns="http://www.w3.org/2000/svg"
   xmlns:svg="http://www.w3.org/2000/svg"><sodipodi:namedview
     id="namedview1"
     pagecolor="#ffffff"
     bordercolor="#000000"
     borderopacity="0.25"
     inkscape:showpageshadow="2"
     inkscape:pageopacity="0.0"
     inkscape:pagecheckerboard="0"
     inkscape:deskcolor="#d1d1d1"
     inkscape:document-units="mm"
     inkscape:zoom="11.313708"
     inkscape:cx="36.769553"
     inkscape:cy="31.731417"
     inkscape:window-width="1920"
     inkscape:window-height="1006"
     inkscape:window-x="1680"
     inkscape:window-y="0"
     inkscape:window-maximized="1"
     inkscape:current-layer="layer1" /><defs
     id="defs1"><clipPath
       clipPathUnits="userSpaceOnUse"
       id="clipPath13"><rect
         style="fill:#945f3c;fill-opacity:0.582386;stroke:none;stroke-width:0.282919;stroke-opacity:1"
         id="rect13"
         width="99.344093"
         height="93.269661"
         x="-621.50854"
         y="-234.04793"
         clip-path="none" /></clipPath></defs><g
     inkscape:label="Layer 1"
     inkscape:groupmode="layer"
     id="layer1"><rect
       style="fill:#4d4d4d;fill-opacity:1;stroke:#8e33c8;stroke-width:0.618799;stroke-dasharray:none;stroke-opacity:1"
       id="rect1"
       width="119.3812"
       height="19.381201"
       x="0.30939782"
       y="0.30939972"
       ry="9.6906004" /><circle
       style="fill:#b3b3b3;fill-opacity:1;stroke:#70f5f3;stroke-width:0.619356;stroke-opacity:1"
       id="path1"
       cx="10"
       cy="10"
       r="9.6903219" /><polygon
       fill="#ff9800"
       points="19,25 29,25 29,31 24,37 19,31 "
       id="polygon1-2"
       style="fill:#eec1a4;fill-opacity:1"
       transform="matrix(0.44442504,0,0,0.44442504,-0.66620097,0.35432475)" /><path
       fill="#ffb74d"
       d="M 13.789351,6.1318503 C 13.789351,5.1454716 11.180827,4.0127369 10,4.0335858 8.1979364,4.0654033 6.2106494,5.1900372 6.2106494,6.1318503 v 3.1109752 c 0,2.2221255 1.6841558,3.9998255 3.7893506,3.9998255 2.105195,0 3.789351,-1.7777 3.789351,-3.9998255 z"
       id="path2-9"
       style="fill:#ffccaa;stroke-width:0.432574"
       sodipodi:nodetypes="sssssss" /><path
       style="display:inline;fill:#9b633f;fill-opacity:1;stroke-width:0.444425"
       d="m 9.9999062,3.0344401 c -4.4549686,0.078426 -6.6982989,7.3799929 -6.6982989,8.5917239 0,2.949582 3.5873632,2.908949 4.4762124,1.893424 C 8.2222443,12.278725 7.0839078,11.006249 6.9354938,8.7984294 6.9924388,6.5489814 9.3773465,5.3252402 10,5.316471 c 0.65481,0.014616 3.007374,1.2325104 3.064319,3.4819584 -0.148414,2.2078196 -1.28675,3.4802956 -0.842326,4.7211586 0.888849,1.015525 4.476729,1.056158 4.476729,-1.893424 0,-1.211731 -2.243847,-8.5132975 -6.6988158,-8.5917239 z"
       id="path3-1"
       sodipodi:nodetypes="cscccccsc" /><circle
       cx="11.577425"
       cy="8.7984009"
       id="circle3"
       r="0.44442505"
       style="fill:#537c6e;fill-opacity:1;stroke-width:0.444425" /><circle
       cx="8.4224253"
       cy="8.7984009"
       id="circle4"
       r="0.44442505"
       style="fill:#537c6e;fill-opacity:1;stroke-width:0.444425" /><path
       id="polygon4-7"
       d="M 18.999876 30.999856 L 23.921884 42.812442 A 21.114484 21.114484 0 0 0 23.999789 42.818256 A 21.114484 21.114484 0 0 0 24.077695 42.812442 L 28.999703 30.999856 L 23.999789 31.999839 L 18.999876 30.999856 z "
       transform="matrix(0.44442504,0,0,0.44442504,-0.66620097,0.35432475)"
       style="fill:#ffffff;fill-opacity:1" /><path
       id="polygon5-0"
       d="M 23.999789 31.999839 L 21.999824 33.999804 L 22.999807 34.999787 L 22.299819 39.499709 L 23.700957 42.797326 A 21.114484 21.114484 0 0 0 23.999789 42.818256 A 21.114484 21.114484 0 0 0 24.298621 42.797326 L 25.69976 39.499709 L 24.999772 34.999787 L 25.999755 33.999804 L 23.999789 31.999839 z "
       transform="matrix(0.44442504,0,0,0.44442504,-0.66620097,0.35432475)"
       style="fill:#d32f2f;fill-opacity:1" /><path
       id="path5"
       style="stroke-width:0.444425;fill:#242d31;fill-opacity:1"
       d="M 7.7778198 14.131437 C 7.7778198 14.131437 5.0556753 14.627553 3.6741943 16.911112 A 9.3838053 9.3838053 0 0 0 9.9652832 19.381246 L 7.7778198 14.131437 z M 12.221993 14.131437 L 10.03453 19.381246 A 9.3838053 9.3838053 0 0 0 16.326135 16.911112 C 14.9447 14.627348 12.221993 14.131437 12.221993 14.131437 z " /></g></svg>
